<mxfile host="app.diagrams.net" agent="Mozilla/5.0 (Windows NT 10.0; Win64; x64) AppleWebKit/537.36 (KHTML, like Gecko) Chrome/140.0.0.0 Safari/537.36 Edg/140.0.0.0" version="28.2.3">
  <diagram name="PÃ¡gina-1" id="F9J4FGeWrQUqjrYeTRpX">
    <mxGraphModel dx="1493" dy="863" grid="1" gridSize="10" guides="1" tooltips="1" connect="1" arrows="1" fold="1" page="1" pageScale="1" pageWidth="827" pageHeight="1169" math="0" shadow="0">
      <root>
        <mxCell id="0" />
        <mxCell id="1" parent="0" />
        <mxCell id="L7soztEcY_r50OQLfEO0-91" value="" style="edgeStyle=orthogonalEdgeStyle;rounded=0;orthogonalLoop=1;jettySize=auto;html=1;" edge="1" parent="1" source="L7soztEcY_r50OQLfEO0-87" target="L7soztEcY_r50OQLfEO0-90">
          <mxGeometry relative="1" as="geometry" />
        </mxCell>
        <mxCell id="L7soztEcY_r50OQLfEO0-87" value="inicio" style="ellipse;whiteSpace=wrap;html=1;" vertex="1" parent="1">
          <mxGeometry x="60" y="30" width="120" height="80" as="geometry" />
        </mxCell>
        <mxCell id="L7soztEcY_r50OQLfEO0-95" value="" style="edgeStyle=orthogonalEdgeStyle;rounded=0;orthogonalLoop=1;jettySize=auto;html=1;" edge="1" parent="1" source="L7soztEcY_r50OQLfEO0-90" target="L7soztEcY_r50OQLfEO0-94">
          <mxGeometry relative="1" as="geometry" />
        </mxCell>
        <mxCell id="L7soztEcY_r50OQLfEO0-90" value="ler 20, 200, 1000" style="shape=parallelogram;perimeter=parallelogramPerimeter;whiteSpace=wrap;html=1;fixedSize=1;" vertex="1" parent="1">
          <mxGeometry x="260" y="40" width="120" height="60" as="geometry" />
        </mxCell>
        <mxCell id="L7soztEcY_r50OQLfEO0-97" value="" style="edgeStyle=orthogonalEdgeStyle;rounded=0;orthogonalLoop=1;jettySize=auto;html=1;" edge="1" parent="1" source="L7soztEcY_r50OQLfEO0-94" target="L7soztEcY_r50OQLfEO0-96">
          <mxGeometry relative="1" as="geometry" />
        </mxCell>
        <mxCell id="L7soztEcY_r50OQLfEO0-94" value="total = 20 +200" style="whiteSpace=wrap;html=1;" vertex="1" parent="1">
          <mxGeometry x="460" y="40" width="120" height="60" as="geometry" />
        </mxCell>
        <mxCell id="L7soztEcY_r50OQLfEO0-100" value="" style="edgeStyle=orthogonalEdgeStyle;rounded=0;orthogonalLoop=1;jettySize=auto;html=1;" edge="1" parent="1" source="L7soztEcY_r50OQLfEO0-96" target="L7soztEcY_r50OQLfEO0-99">
          <mxGeometry relative="1" as="geometry" />
        </mxCell>
        <mxCell id="L7soztEcY_r50OQLfEO0-96" value="total &amp;lt; 1000" style="rhombus;whiteSpace=wrap;html=1;" vertex="1" parent="1">
          <mxGeometry x="425" y="160" width="190" height="180" as="geometry" />
        </mxCell>
        <mxCell id="L7soztEcY_r50OQLfEO0-102" value="" style="edgeStyle=orthogonalEdgeStyle;rounded=0;orthogonalLoop=1;jettySize=auto;html=1;" edge="1" parent="1" source="L7soztEcY_r50OQLfEO0-99" target="L7soztEcY_r50OQLfEO0-101">
          <mxGeometry relative="1" as="geometry" />
        </mxCell>
        <mxCell id="L7soztEcY_r50OQLfEO0-99" value="total = 200 + 220&amp;nbsp;" style="whiteSpace=wrap;html=1;" vertex="1" parent="1">
          <mxGeometry x="460" y="480" width="120" height="60" as="geometry" />
        </mxCell>
        <mxCell id="L7soztEcY_r50OQLfEO0-101" value="" style="rhombus;whiteSpace=wrap;html=1;" vertex="1" parent="1">
          <mxGeometry x="680" y="470" width="80" height="80" as="geometry" />
        </mxCell>
      </root>
    </mxGraphModel>
  </diagram>
</mxfile>
